<?xml version="1.0" encoding="UTF-8"?>
<svg id="Layer_1" xmlns="http://www.w3.org/2000/svg" version="1.1" viewBox="0 0 630.51 98.83">
  <!-- Generator: Adobe Illustrator 29.8.2, SVG Export Plug-In . SVG Version: 2.1.1 Build 3)  -->
  <defs>
    <style>
      .st0 {
        fill: #fff;
      }
    </style>
  </defs>
  <path id="Path_1" class="st0" d="M0,94.91V7.97h24.26c5.17-.07,10.34.63,15.33,2.11,4.03,1.18,7.61,3.55,10.3,6.76,2.62,3.55,3.95,7.9,3.73,12.34.04,4.21-1.22,8.31-3.66,11.71-2.77,3.73-6.8,6.28-11.34,7.2v.52c5.47.59,10.56,2.92,14.59,6.61,3.62,3.8,5.5,8.94,5.21,14.18.52,7.5-2.84,14.74-8.94,19.13-6.91,4.47-15.03,6.65-23.27,6.28H0v.11ZM10.82,44.57h11.6c5.47.44,10.97-.78,15.7-3.58,3.29-2.62,5.06-6.68,4.76-10.9.37-3.99-1.59-7.87-5.02-9.93-4.65-2.22-9.79-3.21-14.92-2.92h-12.11v27.33ZM10.82,85.64h13.81c5.95.33,11.82-1.03,17.03-3.91,4.17-2.84,6.5-7.76,6.06-12.78.37-4.69-1.92-9.16-5.95-11.6-5.32-2.66-11.23-3.84-17.14-3.51h-13.81s0,31.8,0,31.8ZM118.41,96.5c-5.76.37-11.41-1.81-15.44-5.91-3.91-4.88-5.87-11.04-5.39-17.28V9.45h-22.57V.58h33.24v73.53c-.33,3.73.92,7.46,3.47,10.19,2.51,2.18,5.76,3.32,9.05,3.18,4.14-.07,8.16-1.07,11.86-2.92l2.73,8.09c-2.62,1.11-5.32,2.07-8.09,2.84-2.92.7-5.87,1.03-8.86,1ZM184.77,94.91v-55.51h-29.47v-8.86h40.15v64.37h-10.71.04ZM188.95,16.98c-2.25.07-4.47-.78-6.13-2.33-1.66-1.59-2.59-3.84-2.47-6.17-.11-2.33.81-4.54,2.47-6.17,1.66-1.55,3.84-2.36,6.13-2.33,2.25-.07,4.47.78,6.13,2.33,1.66,1.59,2.59,3.84,2.47,6.17.11,2.33-.81,4.54-2.47,6.17-1.66,1.55-3.84,2.4-6.13,2.33h0ZM233.93,94.91V30.5h8.86l.92,11.01h.52c3.14-3.47,6.76-6.5,10.71-9.01,3.95-2.44,8.53-3.66,13.18-3.58,6.24-.52,12.37,1.96,16.55,6.61,3.95,5.65,5.84,12.48,5.36,19.35v40.03h-10.71v-38.56c.37-4.76-.85-9.53-3.4-13.59-2.81-3.18-6.98-4.84-11.23-4.43-3.55-.04-7.05.96-10.05,2.92-3.66,2.55-7.02,5.47-10.05,8.75v44.91s-10.67,0-10.67,0ZM313.85,94.91V.55h10.71v63.89h.52l34.16-33.94h12.26l-25.3,25.3,28.7,39.07h-12l-23.34-32.46-14.99,14.96v17.51h-10.71v.04ZM390.67,94.91v-9.42h21.24V17.24h-21.24V7.97h53.44v9.27h-21.24v68.25h21.24v9.42s-53.44,0-53.44,0ZM507.89,96.5c-5.1.26-10.16-.92-14.59-3.36-3.51-2.18-6.2-5.47-7.65-9.34-1.59-4.47-2.36-9.16-2.29-13.92v-30.47h-17.88v-8.24l18.24-.66,1.44-20.68h8.86v20.68h31.17v8.86h-31.17v30.62c-.3,4.62.89,9.23,3.47,13.11,2.29,2.99,6.5,4.51,12.59,4.51,2.77,0,5.5-.22,8.2-.81,2.4-.52,4.76-1.22,7.05-2.11l2.33,7.94c-2.95,1.07-5.98,1.99-9.05,2.73-3.55.78-7.13,1.18-10.75,1.14h0Z"/>
  <path class="st0" d="M579.36,33.79h38.59c-2.18-5.54-5.5-10.3-9.93-14.29s-9.6-6.76-15.36-8.38l-13.26,22.68h-.04ZM568.24,43.43l19.28-33.28c-.89-.15-1.77-.3-2.66-.37s-1.77-.11-2.66-.11c-5.32,0-10.27,1-14.85,3.03s-8.64,4.69-12.19,8.09l13.04,22.68.04-.04ZM544.86,57.9h26.3l-19.28-33.28c-2.59,3.29-4.58,6.94-6.02,10.9s-2.18,8.24-2.18,12.7c0,1.7.11,3.32.3,4.88s.52,3.14.89,4.76v.04ZM571.86,85.42l13.04-22.68h-38.34c2.18,5.54,5.5,10.3,9.93,14.29s9.6,6.76,15.36,8.38ZM582.24,86.86c5.32,0,10.27-1,14.85-3.03,4.58-2.03,8.64-4.69,12.19-8.09l-13.04-22.68-19.28,33.28c.89.15,1.74.3,2.59.37s1.74.11,2.7.11v.04ZM612.64,71.9c2.59-3.29,4.58-6.94,6.02-10.9s2.18-8.24,2.18-12.7c0-1.7-.11-3.32-.3-4.88s-.52-3.14-.89-4.76h-26.3l19.28,33.28v-.04ZM582.24,96.5c-6.57,0-12.82-1.26-18.69-3.8-5.87-2.55-11.01-5.98-15.36-10.38-4.36-4.39-7.83-9.49-10.38-15.36s-3.8-12.11-3.8-18.69,1.26-12.93,3.8-18.76,5.98-10.93,10.38-15.33,9.49-7.83,15.36-10.38S575.67,0,582.24,0s12.93,1.26,18.76,3.8c5.84,2.55,10.93,5.98,15.33,10.38s7.83,9.49,10.38,15.33,3.8,12.08,3.8,18.76-1.26,12.82-3.8,18.69-5.98,11.01-10.38,15.36c-4.39,4.36-9.49,7.83-15.33,10.38s-12.08,3.8-18.76,3.8Z"/>
</svg>